<svg width="100" height="44" viewBox="0 0 100 44" fill="none" xmlns="http://www.w3.org/2000/svg">
<path d="M100 32C100 38.6274 77.6142 44 50 44C22.3858 44 0 38.6274 0 32C0 25.3726 22.3858 20 50 20C77.6142 20 100 25.3726 100 32Z" fill="#E7E7E7"/>
<path d="M46 20C46 30.4934 37.9411 39 28 39C18.0589 39 10 30.4934 10 20C10 9.50659 18.0589 1 28 1C37.9411 1 46 9.50659 46 20Z" fill="#E7E7E7"/>
<path d="M96 21.5C96 33.3741 84.8071 43 71 43C57.1929 43 46 33.3741 46 21.5C46 9.62588 57.1929 0 71 0C84.8071 0 96 9.62588 96 21.5Z" fill="#E7E7E7"/>
</svg>
