<svg width="75" height="50" viewBox="0 0 75 50" fill="none" xmlns="http://www.w3.org/2000/svg">
<path d="M41 29.5C41 40.8218 31.8218 50 20.5 50C9.17816 50 0 40.8218 0 29.5C0 18.1782 9.17816 9 20.5 9C31.8218 9 41 18.1782 41 29.5Z" fill="#E7E7E7"/>
<path d="M55 20.5C55 31.8218 45.8218 41 34.5 41C23.1782 41 14 31.8218 14 20.5C14 9.17816 23.1782 0 34.5 0C45.8218 0 55 9.17816 55 20.5Z" fill="#E7E7E7"/>
<path d="M75 29.5C75 40.8218 65.8218 50 54.5 50C43.1782 50 34 40.8218 34 29.5C34 18.1782 43.1782 9 54.5 9C65.8218 9 75 18.1782 75 29.5Z" fill="#E7E7E7"/>
</svg>
