<svg width="116" height="69" viewBox="0 0 116 69" fill="none" xmlns="http://www.w3.org/2000/svg">
<path d="M74 40C74 52.7025 57.4345 63 37 63C16.5655 63 0 52.7025 0 40C0 27.2975 16.5655 17 37 17C57.4345 17 74 27.2975 74 40Z" fill="#E7E7E7"/>
<path d="M108 23C108 35.7025 91.4345 46 71 46C50.5655 46 34 35.7025 34 23C34 10.2975 50.5655 0 71 0C91.4345 0 108 10.2975 108 23Z" fill="#E7E7E7"/>
<path d="M116 46C116 58.7025 99.4345 69 79 69C58.5655 69 42 58.7025 42 46C42 33.2975 58.5655 23 79 23C99.4345 23 116 33.2975 116 46Z" fill="#E7E7E7"/>
</svg>
